<?xml version="1.0" encoding="UTF-8" standalone="no"?>
<!-- Created with Inkscape (http://www.inkscape.org/) -->

<svg
   width="210mm"
   height="297mm"
   viewBox="0 0 210 297"
   version="1.1"
   id="svg5"
   sodipodi:docname="SMlogo.svg"
   inkscape:version="1.1.2 (b8e25be833, 2022-02-05)"
   inkscape:export-filename="C:\Users\bartek\Desktop\szkola\cotw\apka-tester\src\SMlogo.png"
   inkscape:export-xdpi="96"
   inkscape:export-ydpi="96"
   xmlns:inkscape="http://www.inkscape.org/namespaces/inkscape"
   xmlns:sodipodi="http://sodipodi.sourceforge.net/DTD/sodipodi-0.dtd"
   xmlns:xlink="http://www.w3.org/1999/xlink"
   xmlns="http://www.w3.org/2000/svg"
   xmlns:svg="http://www.w3.org/2000/svg">
  <sodipodi:namedview
     id="namedview7"
     pagecolor="#ffffff"
     bordercolor="#666666"
     borderopacity="1.0"
     inkscape:pageshadow="2"
     inkscape:pageopacity="0.0"
     inkscape:pagecheckerboard="0"
     inkscape:document-units="mm"
     showgrid="false"
     inkscape:zoom="1.3647868"
     inkscape:cx="392.00263"
     inkscape:cy="806.71943"
     inkscape:window-width="1920"
     inkscape:window-height="1017"
     inkscape:window-x="-8"
     inkscape:window-y="-8"
     inkscape:window-maximized="1"
     inkscape:current-layer="g8599" />
  <defs
     id="defs2">
    <rect
       x="466.73958"
       y="723.18989"
       width="317.26568"
       height="112.10542"
       id="rect11231" />
    <rect
       x="-197.8331"
       y="76.20238"
       width="1175.2752"
       height="789.86698"
       id="rect5893" />
    <marker
       style="overflow:visible"
       id="DiamondMstart"
       refX="0.0"
       refY="0.0"
       orient="auto"
       inkscape:stockid="DiamondMstart"
       inkscape:isstock="true">
      <path
         transform="scale(0.4) translate(6.5,0)"
         style="fill-rule:evenodd;fill:context-stroke;stroke:context-stroke;stroke-width:1.0pt"
         d="M 0,-7.0710768 L -7.0710894,0 L 0,7.0710589 L 7.0710462,0 L 0,-7.0710768 z "
         id="path2830" />
    </marker>
    <marker
       style="overflow:visible"
       id="Legs"
       refX="0.0"
       refY="0.0"
       orient="auto"
       inkscape:stockid="Legs"
       inkscape:isstock="true">
      <g
         transform="scale(-0.7)"
         id="g2948">
        <g
           transform="matrix(0,-1.000000,-1.000000,0,20.70862,21.31391)"
           id="g2942">
          <path
             style="fill:none;fill-opacity:0.75000000;fill-rule:evenodd;stroke:context-stroke;stroke-width:1.0000000pt"
             d="M 21.221250,20.675360 C 14.311099,25.396517 18.766725,27.282204 15.380179,34.118595"
             id="path2938" />
          <path
             style="fill:none;fill-opacity:0.75000000;fill-rule:evenodd;stroke:context-stroke;stroke-width:1.0000000pt"
             d="M 21.398110,20.548120 C 20.037601,28.895644 24.934182,29.318060 25.903151,34.373078"
             id="path2940" />
        </g>
        <path
           style="fill:context-stroke;fill-rule:evenodd;stroke-width:1.0000000pt"
           d="M -14.090070,-6.7318716 L -15.012238,-2.6884886 L -11.049487,-3.9115586 L -14.090070,-6.7318716 z "
           id="path2944" />
        <path
           style="fill:context-stroke;fill-rule:evenodd;stroke-width:1.0000000pt"
           d="M -15.215679,4.5567534 L -13.341552,8.2563664 L -11.074678,4.7835114 L -15.215679,4.5567534 z "
           id="path2946" />
      </g>
    </marker>
    <marker
       style="overflow:visible"
       id="Scissors"
       refX="0.0"
       refY="0.0"
       orient="auto"
       inkscape:stockid="Scissors"
       inkscape:isstock="true">
      <path
         style="fill:context-stroke;"
         d="M 9.0898857,-3.6061018 C 8.1198849,-4.7769976 6.3697607,-4.7358294 5.0623558,-4.2327734 L -3.1500488,-1.1548705 C -5.5383421,-2.4615840 -7.8983361,-2.0874077 -7.8983361,-2.7236578 C -7.8983361,-3.2209742 -7.4416699,-3.1119800 -7.5100293,-4.4068519 C -7.5756648,-5.6501286 -8.8736064,-6.5699315 -10.100428,-6.4884954 C -11.327699,-6.4958500 -12.599867,-5.5553341 -12.610769,-4.2584343 C -12.702194,-2.9520479 -11.603560,-1.7387447 -10.304005,-1.6532027 C -8.7816644,-1.4265411 -6.0857470,-2.3487593 -4.8210600,-0.082342643 C -5.7633447,1.6559151 -7.4350844,1.6607341 -8.9465707,1.5737277 C -10.201445,1.5014928 -11.708664,1.8611256 -12.307219,3.0945882 C -12.885586,4.2766744 -12.318421,5.9591904 -10.990470,6.3210002 C -9.6502788,6.8128279 -7.8098011,6.1912892 -7.4910978,4.6502760 C -7.2454393,3.4624530 -8.0864637,2.9043186 -7.7636052,2.4731223 C -7.5199917,2.1477623 -5.9728246,2.3362771 -3.2164999,1.0982979 L 5.6763468,4.2330688 C 6.8000164,4.5467672 8.1730685,4.5362646 9.1684433,3.4313614 L -0.051640930,-0.053722219 L 9.0898857,-3.6061018 z M -9.2179159,-5.5066058 C -7.9233569,-4.7838060 -8.0290767,-2.8230356 -9.3743431,-2.4433169 C -10.590861,-2.0196559 -12.145370,-3.2022863 -11.757521,-4.5207817 C -11.530373,-5.6026336 -10.104134,-6.0014137 -9.2179159,-5.5066058 z M -9.1616516,2.5107591 C -7.8108215,3.0096239 -8.0402087,5.2951947 -9.4138723,5.6023681 C -10.324932,5.9187072 -11.627422,5.4635705 -11.719569,4.3902287 C -11.897178,3.0851737 -10.363484,1.9060805 -9.1616516,2.5107591 z "
         id="schere" />
    </marker>
    <marker
       style="overflow:visible"
       id="marker3045"
       refX="0.0"
       refY="0.0"
       orient="auto"
       inkscape:stockid="Tail"
       inkscape:isstock="true">
      <g
         transform="scale(-1.2)"
         id="g3043">
        <path
           style="fill:none;fill-rule:evenodd;stroke:context-stroke;stroke-width:0.8;stroke-linecap:round"
           d="M -3.8048674,-3.9585227 L 0.54352094,0"
           id="path3031" />
        <path
           style="fill:none;fill-rule:evenodd;stroke:context-stroke;stroke-width:0.8;stroke-linecap:round"
           d="M -1.2866832,-3.9585227 L 3.0617053,0"
           id="path3033" />
        <path
           style="fill:none;fill-rule:evenodd;stroke:context-stroke;stroke-width:0.8;stroke-linecap:round"
           d="M 1.3053582,-3.9585227 L 5.6537466,0"
           id="path3035" />
        <path
           style="fill:none;fill-rule:evenodd;stroke:context-stroke;stroke-width:0.8;stroke-linecap:round"
           d="M -3.8048674,4.1775838 L 0.54352094,0.21974226"
           id="path3037" />
        <path
           style="fill:none;fill-rule:evenodd;stroke:context-stroke;stroke-width:0.8;stroke-linecap:round"
           d="M -1.2866832,4.1775838 L 3.0617053,0.21974226"
           id="path3039" />
        <path
           style="fill:none;fill-rule:evenodd;stroke:context-stroke;stroke-width:0.8;stroke-linecap:round"
           d="M 1.3053582,4.1775838 L 5.6537466,0.21974226"
           id="path3041" />
      </g>
    </marker>
    <marker
       style="overflow:visible"
       id="Tail"
       refX="0.0"
       refY="0.0"
       orient="auto"
       inkscape:stockid="Tail"
       inkscape:isstock="true">
      <g
         transform="scale(-1.2)"
         id="g2787">
        <path
           style="fill:none;fill-rule:evenodd;stroke:context-stroke;stroke-width:0.8;stroke-linecap:round"
           d="M -3.8048674,-3.9585227 L 0.54352094,0"
           id="path2775" />
        <path
           style="fill:none;fill-rule:evenodd;stroke:context-stroke;stroke-width:0.8;stroke-linecap:round"
           d="M -1.2866832,-3.9585227 L 3.0617053,0"
           id="path2777" />
        <path
           style="fill:none;fill-rule:evenodd;stroke:context-stroke;stroke-width:0.8;stroke-linecap:round"
           d="M 1.3053582,-3.9585227 L 5.6537466,0"
           id="path2779" />
        <path
           style="fill:none;fill-rule:evenodd;stroke:context-stroke;stroke-width:0.8;stroke-linecap:round"
           d="M -3.8048674,4.1775838 L 0.54352094,0.21974226"
           id="path2781" />
        <path
           style="fill:none;fill-rule:evenodd;stroke:context-stroke;stroke-width:0.8;stroke-linecap:round"
           d="M -1.2866832,4.1775838 L 3.0617053,0.21974226"
           id="path2783" />
        <path
           style="fill:none;fill-rule:evenodd;stroke:context-stroke;stroke-width:0.8;stroke-linecap:round"
           d="M 1.3053582,4.1775838 L 5.6537466,0.21974226"
           id="path2785" />
      </g>
    </marker>
    <linearGradient
       inkscape:collect="always"
       id="linearGradient5662">
      <stop
         style="stop-color:#ffff6d;stop-opacity:1"
         offset="0"
         id="stop5658" />
      <stop
         style="stop-color:#ed2313;stop-opacity:0.67058825"
         offset="1"
         id="stop5660" />
    </linearGradient>
    <inkscape:path-effect
       effect="spiro"
       id="path-effect5369"
       is_visible="true"
       lpeversion="1" />
    <rect
       x="218"
       y="284"
       width="472"
       height="61"
       id="rect11002" />
    <linearGradient
       inkscape:collect="always"
       xlink:href="#linearGradient5662"
       id="linearGradient5664"
       x1="57.124557"
       y1="17.448072"
       x2="157.76274"
       y2="139.00095"
       gradientUnits="userSpaceOnUse"
       gradientTransform="matrix(1.5064387,0,0,1.5064387,-61.144563,14.560505)" />
  </defs>
  <g
     inkscape:label="Warstwa 1"
     inkscape:groupmode="layer"
     id="layer1">
    <g
       id="g8599"
       transform="matrix(0.48422318,0,0,0.48422318,1.3551104,132.73745)">
      <circle
         style="fill:url(#linearGradient5664);fill-opacity:1;stroke:#000000;stroke-width:3;stroke-linejoin:round;stroke-miterlimit:4;stroke-dasharray:none;stroke-dashoffset:0;stroke-opacity:1"
         id="path6618"
         cx="105.2394"
         cy="154.74234"
         r="101.11208" />
      <path
         style="opacity:0;fill:none;stroke:#000000;stroke-width:0.387991px;stroke-linecap:butt;stroke-linejoin:miter;stroke-opacity:1"
         d="M 31.288801,115.71588 C 48.09547,91.878071 76.872514,76.956838 106.03937,76.956838 c 29.16685,0 57.94389,14.921233 74.75056,38.759042 0.67059,0.95113 1.32302,1.91506 1.95682,2.89109"
         id="path5367"
         inkscape:original-d="m 31.288801,115.71588 c 49.834088,3.9e-4 99.667809,3.9e-4 149.501129,0 49.83334,-4e-4 1.30494,1.92779 1.95682,2.89109"
         inkscape:path-effect="#path-effect5369" />
      <path
         id="path87"
         style="fill:#000000;fill-opacity:1;stroke:#000000;stroke-width:1.50644;stroke-linecap:butt;stroke-linejoin:round;stroke-miterlimit:4;stroke-dasharray:none;stroke-opacity:1"
         d="m 144.85873,104.77525 c -18.20558,10.1101 -16.10918,14.21929 -18.14435,17.85133 -2.45713,-1.38043 -36.14755,-10.40182 -64.969844,15.80386 5.359009,-0.84477 11.226112,-3.04455 15.510796,-1.02438 -36.741404,23.78561 -36.614651,33.00659 -43.312833,44.92327 5.430435,-2.79003 11.595399,-6.90378 15.217817,-6.43927 -10.365991,16.07831 -8.878665,39.44049 -5.035236,59.36002 a 101.11207,101.11207 0 0 0 60.945,20.51164 101.11207,101.11207 0 0 0 28.899,-4.25038 c -2.58703,-29.03952 -39.436038,-51.04307 -9.30342,-75.62128 12.29237,12.45299 19.23864,16.54963 27.65669,19.02349 4.00106,14.27603 33.43857,11.48284 24.58238,-9.36587 -1.36983,-2.15444 -3.58538,-6.00035 -5.70664,-9.65762 -12.77587,-33.36948 -16.10942,-38.36888 -20.48614,-42.728 -0.82715,-8.43628 -2.4203,-17.63787 -0.29303,-23.11971 -1.90143,0.72726 -5.95845,3.737 -9.00662,6.59599 -0.51742,-2.02104 2.69723,-6.79118 3.44643,-11.86309 z" />
      <text
         xml:space="preserve"
         id="text11000"
         style="font-style:normal;font-variant:normal;font-weight:bold;font-stretch:normal;font-size:18.6963px;line-height:1.25;font-family:'Noto Serif';-inkscape-font-specification:'Noto Serif, Bold';font-variant-ligatures:normal;font-variant-caps:normal;font-variant-numeric:normal;font-variant-east-asian:normal;white-space:pre;fill:#000000;fill-opacity:1;stroke:none;stroke-width:1.46642"
         transform="matrix(0.98642347,0,0,1.1318881,0.09382962,-14.199038)"><textPath
           xlink:href="#path5367"
           id="textPath5451"
           style="font-style:normal;font-variant:normal;font-weight:bold;font-stretch:normal;font-size:18.6963px;font-family:'Noto Serif';-inkscape-font-specification:'Noto Serif, Bold';font-variant-ligatures:normal;font-variant-caps:normal;font-variant-numeric:normal;font-variant-east-asian:normal;stroke-width:1.46642"><tspan
             id="tspan11004"
             style="font-style:normal;font-variant:normal;font-weight:bold;font-stretch:normal;font-size:18.6963px;font-family:'Noto Serif';-inkscape-font-specification:'Noto Serif, Bold';font-variant-ligatures:normal;font-variant-caps:normal;font-variant-numeric:normal;font-variant-east-asian:normal;fill:#000000;fill-opacity:1;stroke-width:1.46642">STABLE MANAGER</tspan></textPath></text>
      <text
         xml:space="preserve"
         transform="scale(0.26458333)"
         id="text5891"
         style="font-style:normal;font-weight:normal;font-size:40px;line-height:1.25;font-family:sans-serif;white-space:pre;shape-inside:url(#rect5893);fill:#000000;fill-opacity:1;stroke:none" />
      <text
         xml:space="preserve"
         transform="matrix(0.54640782,0,0,0.54640782,-2.7985244,-274.12453)"
         id="text11229"
         style="font-style:normal;font-weight:normal;font-size:40px;line-height:1.25;font-family:sans-serif;white-space:pre;shape-inside:url(#rect11231);fill:#000000;fill-opacity:1;stroke:none"><tspan
           x="466.74023"
           y="759.58446"
           id="tspan15001">STABLE
</tspan><tspan
           x="466.74023"
           y="809.58446"
           id="tspan15003"> MANAGER</tspan></text>
    </g>
  </g>
</svg>
